<svg viewBox="0 0 50 50" xmlns="http://www.w3.org/2000/svg">
  <path d="M35 35C45 50 50 1 35 20C30 15 20 15 15 20C0 1 5 50 15 35C20 55 30 55 35 35" fill="#d1d1d1"/>
  <path d="M39 36C42 35 44 18 40 18C35 18 32 35 39 36" fill="#ffc2c2" />
  <path d="M11 36C8 35 6 18 10 18C15 18 18 35 11 36" fill="#ffc2c2" />
  <path d="M38 22C30 15 20 15 12 22C12 45 38 45 38 22" fill="#d1d1d1" />
  <path d="M25 50C24 50 24 50 24 49L26 49C26 50 26 50 25 50M26 49C29 48 31 47 33 45C33 44 32 45 32 45C31 46 29 48 26 49M24 49C21 48 19 47 17 45C17 44 18 45 18 45C19 46 21 48 24 49M26 50C29 50 31 49 33 47C33 46 32 47 32 47C31 48 29 50 26 50M24 50C21 50 19 49 17 47C17 46 18 47 18 47C19 48 21 50 24 50" fill="#000" />
</svg>
