<?xml version="1.0" standalone="no"?>
<svg width="" viewBox="0 0 10 10" class="icon" version="1.1" xmlns="http://www.w3.org/2000/svg">
  <path fill="#5C3D17" d="M0 9C0 8 0 9 1 8C1 9 2 9 2 9C1 10 2 10 1 10C0 10 0 10 0 9" />
  <path fill="#4f3412" d="M2 9C2 9 1 9 1 8C1 7 1 8 2 7C2 8 3 8 3 8C2 9 3 9 2 9"/>
  <path fill="#452c0c" d="M3 8C3 8 2 8 2 7C2 6 2 7 3 6C4 7 4 7 4 7C3 8 4 8 3 8"/>
  <path fill="#e0c238" d="M 3 6 C 2 5 1 4 1 5 C 0 3 1 3 2 4 L 4 6 L 3.5 6.5 Z"/>
  <path fill="#c9ac2a" d="M 4 6 L 6 8 C 7 9 7 10 5 9 C 6 9 5 8 4 7 L 3.5 6.5 Z"/>
  <path fill="#b5b5b5" d="M4 6L3 5C4 6 6 2 8 1C10 0 10 0 9 2C8 4 4 6 5 7 Z"/>
  <path fill="#c7c7c7" d="M4 6L3 5C4 6 6 2 8 1C10 0 10 0 9 2C6 3 6 4 4 6Z"/>
</svg>
